<svg xmlns="http://www.w3.org/2000/svg" xmlns:xlink="http://www.w3.org/1999/xlink" width="1080" zoomAndPan="magnify" viewBox="0 0 810 1012.49997" height="1350" preserveAspectRatio="xMidYMid meet" version="1.0"><defs><g/><clipPath id="159155fc3b"><path d="M 1 18 L 809 18 L 809 994.523438 L 1 994.523438 Z M 1 18 " clip-rule="nonzero"/></clipPath><clipPath id="923faf30ae"><path d="M 211 487 L 360 487 L 360 994.523438 L 211 994.523438 Z M 211 487 " clip-rule="nonzero"/></clipPath></defs><g fill="#ffffff" fill-opacity="1"><g transform="translate(3.318388, 378.736)"><g><path d="M 34.222656 -44.640625 L 34.222656 -27.261719 C 34.222656 -27.199219 34.164062 -27.140625 34.105469 -27.140625 L 25.949219 -27.140625 C 25.890625 -27.140625 25.890625 -27.199219 25.890625 -27.261719 L 25.890625 -44.640625 L 1.191406 -44.640625 L 1.191406 0 L 25.890625 0 L 25.890625 -14.523438 C 25.890625 -14.582031 25.890625 -14.640625 25.949219 -14.640625 L 34.105469 -14.640625 C 34.164062 -14.640625 34.222656 -14.582031 34.222656 -14.523438 L 34.222656 0 L 58.925781 0 L 58.925781 -44.640625 Z M 34.222656 -44.640625 "/></g></g></g><g fill="#ffffff" fill-opacity="1"><g transform="translate(67.415084, 378.736)"><g><path d="M 54.222656 -44.640625 L 0.59375 -44.640625 L 0.59375 -26.546875 L 14.941406 -26.546875 C 15 -26.546875 15.058594 -26.488281 15.058594 -26.425781 L 15.058594 0 L 39.761719 0 L 39.761719 -26.425781 C 39.761719 -26.488281 39.820312 -26.546875 39.878906 -26.546875 L 54.222656 -26.546875 Z M 54.222656 -44.640625 "/></g></g></g><g fill="#ffffff" fill-opacity="1"><g transform="translate(126.215072, 378.736)"><g><path d="M 54.222656 -44.640625 L 0.59375 -44.640625 L 0.59375 -26.546875 L 14.941406 -26.546875 C 15 -26.546875 15.058594 -26.488281 15.058594 -26.425781 L 15.058594 0 L 39.761719 0 L 39.761719 -26.425781 C 39.761719 -26.488281 39.820312 -26.546875 39.878906 -26.546875 L 54.222656 -26.546875 Z M 54.222656 -44.640625 "/></g></g></g><g fill="#ffffff" fill-opacity="1"><g transform="translate(185.015059, 378.736)"><g><path d="M 38.511719 -44.640625 L 1.191406 -44.640625 L 1.191406 0 L 25 0 L 25 -8.332031 C 25 -8.390625 25.058594 -8.453125 25.117188 -8.453125 L 38.511719 -8.453125 C 52.972656 -8.453125 60.472656 -17.675781 60.472656 -26.84375 C 60.472656 -35.773438 53.269531 -44.640625 38.511719 -44.640625 Z M 31.425781 -20.535156 L 25.117188 -20.535156 C 25.058594 -20.535156 25 -20.59375 25 -20.59375 L 25 -28.75 C 25 -28.808594 25.058594 -28.867188 25.117188 -28.867188 L 31.425781 -28.867188 C 35.058594 -28.867188 36.84375 -26.84375 36.84375 -24.761719 C 36.84375 -22.675781 35 -20.535156 31.425781 -20.535156 Z M 31.425781 -20.535156 "/></g></g></g><g fill="#ffffff" fill-opacity="1"><g transform="translate(249.7664, 378.736)"><g><path d="M 36.722656 -44.640625 L 12.5 -44.640625 L 0.535156 4.703125 L 24.761719 4.703125 Z M 36.722656 -44.640625 "/></g></g></g><g fill="#ffffff" fill-opacity="1"><g transform="translate(291.128952, 378.736)"><g><path d="M 36.722656 -44.640625 L 12.5 -44.640625 L 0.535156 4.703125 L 24.761719 4.703125 Z M 36.722656 -44.640625 "/></g></g></g><g fill="#ffffff" fill-opacity="1"><g transform="translate(332.491503, 378.736)"><g><path d="M 58.984375 -44.640625 C 57.792969 -36.484375 56.542969 -28.390625 55.355469 -20.238281 L 55.234375 -20.238281 L 51.722656 -44.640625 L 33.75 -44.640625 L 30.472656 -20.238281 L 30.175781 -20.238281 C 28.988281 -28.390625 27.738281 -36.484375 26.546875 -44.640625 L 1.191406 -44.640625 C 4.820312 -29.761719 8.453125 -14.878906 12.023438 0 L 37.855469 0 L 41.367188 -22.378906 C 41.367188 -22.558594 41.546875 -22.5 41.546875 -22.378906 L 45.117188 0 L 72.792969 0 C 76.1875 -14.878906 79.636719 -29.761719 83.089844 -44.640625 Z M 58.984375 -44.640625 "/></g></g></g><g fill="#ffffff" fill-opacity="1"><g transform="translate(420.750708, 378.736)"><g><path d="M 58.984375 -44.640625 C 57.792969 -36.484375 56.542969 -28.390625 55.355469 -20.238281 L 55.234375 -20.238281 L 51.722656 -44.640625 L 33.75 -44.640625 L 30.472656 -20.238281 L 30.175781 -20.238281 C 28.988281 -28.390625 27.738281 -36.484375 26.546875 -44.640625 L 1.191406 -44.640625 C 4.820312 -29.761719 8.453125 -14.878906 12.023438 0 L 37.855469 0 L 41.367188 -22.378906 C 41.367188 -22.558594 41.546875 -22.5 41.546875 -22.378906 L 45.117188 0 L 72.792969 0 C 76.1875 -14.878906 79.636719 -29.761719 83.089844 -44.640625 Z M 58.984375 -44.640625 "/></g></g></g><g fill="#ffffff" fill-opacity="1"><g transform="translate(509.009912, 378.736)"><g><path d="M 58.984375 -44.640625 C 57.792969 -36.484375 56.542969 -28.390625 55.355469 -20.238281 L 55.234375 -20.238281 L 51.722656 -44.640625 L 33.75 -44.640625 L 30.472656 -20.238281 L 30.175781 -20.238281 C 28.988281 -28.390625 27.738281 -36.484375 26.546875 -44.640625 L 1.191406 -44.640625 C 4.820312 -29.761719 8.453125 -14.878906 12.023438 0 L 37.855469 0 L 41.367188 -22.378906 C 41.367188 -22.558594 41.546875 -22.5 41.546875 -22.378906 L 45.117188 0 L 72.792969 0 C 76.1875 -14.878906 79.636719 -29.761719 83.089844 -44.640625 Z M 58.984375 -44.640625 "/></g></g></g><g fill="#ffffff" fill-opacity="1"><g transform="translate(597.269117, 378.736)"><g><path d="M 1.191406 0 L 22.914062 0 L 22.914062 -16.726562 L 1.191406 -16.726562 Z M 1.191406 0 "/></g></g></g><g fill="#ffffff" fill-opacity="1"><g transform="translate(625.360147, 378.736)"><g><path d="M 58.984375 -44.640625 C 57.792969 -36.484375 56.542969 -28.390625 55.355469 -20.238281 L 55.234375 -20.238281 L 51.722656 -44.640625 L 33.75 -44.640625 L 30.472656 -20.238281 L 30.175781 -20.238281 C 28.988281 -28.390625 27.738281 -36.484375 26.546875 -44.640625 L 1.191406 -44.640625 C 4.820312 -29.761719 8.453125 -14.878906 12.023438 0 L 37.855469 0 L 41.367188 -22.378906 C 41.367188 -22.558594 41.546875 -22.5 41.546875 -22.378906 L 45.117188 0 L 72.792969 0 C 76.1875 -14.878906 79.636719 -29.761719 83.089844 -44.640625 Z M 58.984375 -44.640625 "/></g></g></g><g fill="#ffffff" fill-opacity="1"><g transform="translate(713.619306, 378.736)"><g><path d="M 53.09375 -24.464844 C 59.519531 -25.238281 63.210938 -28.867188 63.210938 -33.152344 C 63.210938 -50.832031 0.476562 -53.6875 0.714844 -26.960938 L 26.011719 -22.914062 C 24.226562 -31.546875 40.117188 -30.652344 40.117188 -26.425781 C 40.117188 -24.640625 39.222656 -23.867188 33.808594 -23.867188 L 33.808594 -22.738281 C 39.402344 -22.738281 40.472656 -22.320312 40.472656 -20.296875 C 40.472656 -15.714844 24.226562 -15.179688 26.011719 -22.914062 L 1.308594 -20.175781 C -4.046875 8.214844 64.402344 8.035156 64.402344 -13.808594 C 64.402344 -19.285156 61.007812 -23.332031 53.09375 -24.34375 C 52.972656 -24.402344 52.972656 -24.402344 53.09375 -24.464844 Z M 53.09375 -24.464844 "/></g></g></g><g fill="#ffffff" fill-opacity="1"><g transform="translate(782.596133, 378.736)"><g><path d="M 1.191406 0 L 22.914062 0 L 22.914062 -16.726562 L 1.191406 -16.726562 Z M 1.191406 0 "/></g></g></g><g fill="#ffffff" fill-opacity="1"><g transform="translate(18.908345, 449.201197)"><g><path d="M 33.332031 -46.722656 C 55.175781 -46.722656 66.066406 -36.605469 66.066406 -22.378906 C 66.066406 -9.523438 56.960938 2.144531 33.332031 2.144531 C 9.640625 2.144531 0.59375 -9.523438 0.59375 -22.378906 C 0.59375 -36.605469 11.488281 -46.722656 33.332031 -46.722656 Z M 33.390625 -27.5 C 27.796875 -27.5 25.890625 -24.820312 25.890625 -22.320312 C 25.890625 -19.703125 27.855469 -17.082031 33.390625 -17.082031 C 38.808594 -17.082031 40.773438 -19.761719 40.773438 -22.378906 C 40.773438 -24.699219 38.925781 -27.5 33.390625 -27.5 Z M 33.390625 -27.5 "/></g></g></g><g fill="#ffffff" fill-opacity="1"><g transform="translate(89.551524, 449.201197)"><g><path d="M 1.191406 -44.640625 L 1.191406 0 L 25 0 C 25 -6.488281 25 -18.035156 25 -18.152344 L 25 -26.425781 C 25 -26.488281 25.058594 -26.546875 25.117188 -26.546875 L 31.902344 -26.546875 C 35.117188 -26.546875 36.722656 -24.464844 36.722656 -22.378906 C 36.722656 -20.296875 35.117188 -18.214844 31.902344 -18.214844 L 25 -18.214844 L 31.960938 0 L 61.722656 0 L 52.257812 -17.675781 L 37.558594 -17.675781 L 37.558594 -17.796875 C 37.558594 -17.796875 37.558594 -17.914062 37.558594 -17.914062 L 41.960938 -17.914062 C 53.269531 -17.914062 58.925781 -24.878906 58.925781 -31.722656 C 58.925781 -38.273438 53.746094 -44.640625 43.332031 -44.640625 Z M 1.191406 -44.640625 "/></g></g></g><g fill="#ffffff" fill-opacity="1"><g transform="translate(154.778979, 449.201197)"><g><path d="M 33.390625 -46.722656 C 9.761719 -46.722656 0.59375 -35.117188 0.59375 -22.261719 C 0.59375 -7.441406 12.203125 3.09375 34.640625 0.417969 C 36.546875 -6.546875 38.511719 -13.511719 40.414062 -20.476562 C 39.460938 -18.808594 37.378906 -17.855469 33.332031 -17.855469 C 28.035156 -17.855469 25.890625 -20.296875 25.890625 -22.796875 C 25.890625 -25.355469 27.675781 -27.976562 33.332031 -27.976562 C 39.285156 -27.976562 41.722656 -24.9375 40.414062 -20.476562 L 66.128906 -26.546875 C 64.222656 -38.035156 54.519531 -46.722656 33.390625 -46.722656 Z M 40.414062 0 L 65.652344 0 L 65.652344 -20.476562 C 57.257812 -20.476562 48.808594 -20.476562 40.414062 -20.476562 Z M 40.414062 0 "/></g></g></g><g fill="#ffffff" fill-opacity="1"><g transform="translate(225.481673, 449.201197)"><g><path d="M 36.722656 -44.640625 L 12.5 -44.640625 L 0.535156 4.703125 L 24.761719 4.703125 Z M 36.722656 -44.640625 "/></g></g></g><g fill="#ffffff" fill-opacity="1"><g transform="translate(266.844224, 449.201197)"><g><path d="M 35.59375 -16.902344 C 52.199219 -18.511719 59.460938 -23.09375 59.460938 -30.890625 C 59.460938 -41.425781 45.59375 -46.84375 31.1875 -46.84375 C 15.179688 -46.84375 -1.367188 -39.582031 0.238281 -25.296875 L 29.9375 -20.238281 C 26.128906 -18.75 21.367188 -17.558594 17.082031 -16.605469 C 11.128906 -15.355469 4.941406 -14.464844 1.070312 -14.046875 L 1.070312 0 L 59.519531 0 L 59.519531 -16.902344 Z M 23.75 -26.011719 C 23.75 -28.75 27.140625 -30.238281 30.472656 -30.238281 C 33.6875 -30.238281 36.84375 -28.867188 36.84375 -26.011719 C 36.84375 -23.6875 33.984375 -21.785156 30 -20.238281 C 25.355469 -21.664062 23.75 -23.925781 23.75 -26.011719 Z M 23.75 -26.011719 "/></g></g></g><g fill="#ffffff" fill-opacity="1"><g transform="translate(331.119462, 449.201197)"><g><path d="M 33.332031 2.082031 C 55.175781 2.082031 66.066406 -8.035156 66.066406 -22.261719 C 66.066406 -35.117188 56.960938 -46.722656 33.332031 -46.722656 C 9.703125 -46.722656 0.59375 -35.117188 0.59375 -22.261719 C 0.59375 -8.035156 11.488281 2.082031 33.332031 2.082031 Z M 33.210938 -17.5 C 27.617188 -17.5 25.890625 -19.9375 25.890625 -22.261719 C 25.890625 -24.699219 28.035156 -27.140625 33.570312 -27.140625 C 38.984375 -27.140625 40.773438 -24.640625 40.773438 -22.203125 C 40.773438 -20.058594 38.746094 -17.5 33.210938 -17.5 Z M 33.210938 -17.5 "/></g></g></g><g fill="#ffffff" fill-opacity="1"><g transform="translate(401.762642, 449.201197)"><g><path d="M 33.332031 2.082031 C 55.175781 2.082031 66.066406 -8.035156 66.066406 -22.261719 C 66.066406 -35.117188 56.960938 -46.722656 33.332031 -46.722656 C 9.703125 -46.722656 0.59375 -35.117188 0.59375 -22.261719 C 0.59375 -8.035156 11.488281 2.082031 33.332031 2.082031 Z M 33.210938 -17.5 C 27.617188 -17.5 25.890625 -19.9375 25.890625 -22.261719 C 25.890625 -24.699219 28.035156 -27.140625 33.570312 -27.140625 C 38.984375 -27.140625 40.773438 -24.640625 40.773438 -22.203125 C 40.773438 -20.058594 38.746094 -17.5 33.210938 -17.5 Z M 33.210938 -17.5 "/></g></g></g><g fill="#ffffff" fill-opacity="1"><g transform="translate(472.405799, 449.201197)"><g><path d="M 33.332031 2.082031 C 55.175781 2.082031 66.066406 -8.035156 66.066406 -22.261719 C 66.066406 -35.117188 56.960938 -46.722656 33.332031 -46.722656 C 9.703125 -46.722656 0.59375 -35.117188 0.59375 -22.261719 C 0.59375 -8.035156 11.488281 2.082031 33.332031 2.082031 Z M 33.210938 -17.5 C 27.617188 -17.5 25.890625 -19.9375 25.890625 -22.261719 C 25.890625 -24.699219 28.035156 -27.140625 33.570312 -27.140625 C 38.984375 -27.140625 40.773438 -24.640625 40.773438 -22.203125 C 40.773438 -20.058594 38.746094 -17.5 33.210938 -17.5 Z M 33.210938 -17.5 "/></g></g></g><g fill="#ffffff" fill-opacity="1"><g transform="translate(543.048978, 449.201197)"><g><path d="M 36.722656 -44.640625 L 12.5 -44.640625 L 0.535156 4.703125 L 24.761719 4.703125 Z M 36.722656 -44.640625 "/></g></g></g><g fill="#ffffff" fill-opacity="1"><g transform="translate(584.41153, 449.201197)"><g><path d="M 37.675781 -26.605469 L 61.484375 -27.914062 C 63.867188 -39.34375 51.542969 -46.722656 32.140625 -46.722656 C 14.820312 -46.722656 0.417969 -41.1875 0.417969 -30.890625 C 0.417969 -24.34375 6.308594 -17.378906 28.988281 -18.09375 L 30.175781 -18.09375 C 34.222656 -18.09375 37.734375 -18.09375 37.734375 -15.773438 C 37.734375 -13.808594 35.296875 -12.855469 32.199219 -12.855469 C 28.210938 -12.855469 25.058594 -14.523438 26.011719 -18.035156 L 0.59375 -16.726562 C -0.59375 -3.453125 12.378906 2.082031 31.785156 2.082031 C 49.222656 2.082031 63.152344 -3.332031 63.152344 -13.570312 C 63.152344 -22.320312 56.902344 -26.011719 37.675781 -26.605469 Z M 30.472656 -26.664062 C 27.261719 -26.664062 25.949219 -27.140625 25.949219 -28.628906 C 25.949219 -30.238281 28.035156 -31.488281 31.1875 -31.488281 C 35 -31.488281 38.09375 -30 36.902344 -26.605469 C 35.355469 -26.664062 33.6875 -26.664062 31.960938 -26.664062 Z M 30.472656 -26.664062 "/></g></g></g><g fill="#ffffff" fill-opacity="1"><g transform="translate(651.960016, 449.201197)"><g><path d="M 68.449219 -44.640625 L 39.699219 -44.640625 C 38.035156 -35.414062 36.367188 -26.128906 34.699219 -16.902344 L 34.582031 -16.902344 C 32.855469 -26.128906 31.1875 -35.414062 29.460938 -44.640625 L 0 -44.640625 L 17.5 0 L 52.257812 0 C 57.675781 -14.878906 63.03125 -29.761719 68.449219 -44.640625 Z M 68.449219 -44.640625 "/></g></g></g><g fill="#ffffff" fill-opacity="1"><g transform="translate(724.388599, 449.201197)"><g><path d="M 33.390625 -46.722656 C 9.761719 -46.722656 0.59375 -35.117188 0.59375 -22.261719 C 0.59375 -7.441406 12.203125 3.09375 34.640625 0.417969 C 36.546875 -6.546875 38.511719 -13.511719 40.414062 -20.476562 C 39.460938 -18.808594 37.378906 -17.855469 33.332031 -17.855469 C 28.035156 -17.855469 25.890625 -20.296875 25.890625 -22.796875 C 25.890625 -25.355469 27.675781 -27.976562 33.332031 -27.976562 C 39.285156 -27.976562 41.722656 -24.9375 40.414062 -20.476562 L 66.128906 -26.546875 C 64.222656 -38.035156 54.519531 -46.722656 33.390625 -46.722656 Z M 40.414062 0 L 65.652344 0 L 65.652344 -20.476562 C 57.257812 -20.476562 48.808594 -20.476562 40.414062 -20.476562 Z M 40.414062 0 "/></g></g></g><g clip-path="url(#159155fc3b)"><path fill="#d4f6c8" d="M 636.34375 651.859375 C 636.34375 628.128906 636.175781 611.578125 636.390625 595.027344 C 636.605469 578.289062 636.78125 561.527344 637.78125 544.824219 C 638.34375 535.40625 638.40625 526.007812 638.65625 516.601562 C 638.863281 508.863281 639.367188 501.132812 639.601562 493.410156 C 640.21875 473.109375 638.574219 452.828125 638.171875 432.527344 C 637.925781 420.191406 637.148438 407.804688 637.804688 395.515625 C 638.578125 381.074219 638.089844 366.609375 639.058594 352.21875 C 639.648438 343.480469 639.054688 334.65625 640.773438 325.957031 C 641.390625 322.824219 642.738281 321.902344 645.695312 321.609375 C 670.914062 319.085938 696.199219 318.875 721.515625 318.683594 C 731.519531 318.609375 741.609375 317.015625 751.5625 318.117188 C 762.242188 319.296875 772.867188 319.003906 783.527344 319.039062 C 785.410156 319.046875 787.300781 318.902344 789.179688 318.972656 C 794.128906 319.160156 795.484375 320.425781 795.496094 325.441406 C 795.507812 330.03125 795.75 334.628906 794.882812 339.21875 C 794.089844 343.382812 795.433594 347.550781 795.460938 351.710938 C 795.597656 372.871094 796.355469 394.0625 795.382812 415.175781 C 794.292969 438.84375 793.929688 462.503906 794.878906 486.117188 C 795.582031 503.632812 796.609375 521.175781 797.941406 538.679688 C 798.117188 540.972656 798.085938 543.285156 798.097656 545.589844 C 798.175781 559.835938 798.066406 574.085938 798.347656 588.324219 C 798.804688 611.742188 799.890625 635.132812 801.730469 658.488281 C 802.242188 664.945312 802.101562 671.472656 801.992188 677.964844 C 801.539062 705.398438 803.351562 732.804688 803.140625 760.230469 C 802.949219 785.15625 804.402344 810.039062 804.96875 834.941406 C 805.296875 849.363281 805.117188 863.839844 806.152344 878.226562 C 807.324219 894.519531 806.765625 910.851562 808.140625 927.125 C 809.144531 939.046875 807.3125 950.945312 806.886719 962.859375 C 806.617188 970.472656 803.175781 973.734375 794.488281 975.03125 C 779.195312 977.308594 763.914062 979.175781 748.351562 979.195312 C 731.417969 979.214844 714.460938 981.023438 697.535156 979.914062 C 682.675781 978.9375 667.839844 979.082031 652.988281 979.023438 C 647.117188 979.003906 647.117188 978.875 645.878906 972.769531 C 644.460938 965.773438 644.195312 958.640625 643.882812 951.578125 C 642.636719 923.339844 642.609375 895.070312 642.132812 866.8125 C 641.796875 846.933594 641.753906 827.027344 640.808594 807.175781 C 640.242188 795.253906 640.386719 783.316406 639.65625 771.417969 C 638.46875 752 638.027344 732.546875 637.023438 713.128906 C 635.847656 690.296875 636.855469 667.488281 636.34375 651.859375 Z M 571 735.050781 C 571 754.144531 571.175781 773.839844 570.960938 793.53125 C 570.582031 827.882812 571.542969 862.222656 572.507812 896.535156 C 573.226562 922.082031 573.203125 947.609375 573.414062 973.144531 C 573.425781 974.402344 573.488281 975.667969 573.371094 976.914062 C 572.996094 980.933594 571.546875 982.5 567.480469 982.804688 C 561.230469 983.269531 554.96875 983.714844 548.703125 983.835938 C 536.976562 984.066406 525.1875 983.351562 513.53125 984.324219 C 498.503906 985.582031 483.433594 984.625 468.410156 986.15625 C 459.496094 987.0625 450.414062 986.511719 441.410156 986.351562 C 436.226562 986.261719 435.175781 984.972656 433.6875 979.886719 C 431.84375 973.578125 432.1875 967.039062 431.457031 960.621094 C 428.378906 933.539062 428.734375 906.304688 428.710938 879.109375 C 428.679688 837.625 428.605469 796.136719 429.082031 754.660156 C 429.273438 738.132812 429.546875 721.578125 430.433594 705.074219 C 430.957031 695.230469 431.445312 685.390625 431.003906 675.585938 C 429.207031 635.808594 431.1875 596 429.710938 556.238281 C 429.183594 542.015625 429.289062 527.765625 428.445312 513.578125 C 426.726562 484.726562 425.960938 455.871094 426.304688 426.976562 C 426.320312 425.71875 426.242188 424.457031 426.332031 423.207031 C 426.597656 419.335938 427.3125 418.589844 431.308594 418.359375 C 433.8125 418.210938 436.335938 418.253906 438.847656 418.304688 C 453.929688 418.625 469 417.667969 484.007812 416.640625 C 497.195312 415.738281 510.34375 415.800781 523.515625 415.507812 C 531.457031 415.332031 539.390625 414.773438 547.332031 414.476562 C 550.679688 414.355469 554.035156 414.386719 557.382812 414.496094 C 565.628906 414.769531 566.6875 415.792969 566.792969 424.152344 C 566.992188 440.070312 566.429688 456.03125 567.355469 471.90625 C 568.734375 495.5625 567.746094 519.230469 568.640625 542.859375 C 569.617188 568.613281 568.609375 594.390625 569.855469 620.113281 C 571.699219 658.226562 569.765625 696.34375 571 735.050781 Z M 359.65625 606.898438 C 359.65625 621.578125 359.957031 632.484375 359.59375 643.367188 C 358.902344 663.875 358.582031 684.390625 358.035156 704.902344 C 357.386719 729.378906 356.460938 753.855469 355.566406 778.328125 C 354.925781 795.914062 355.175781 813.507812 354.363281 831.074219 C 352.773438 865.410156 354.457031 899.777344 353.085938 934.101562 C 352.699219 943.703125 352.320312 953.316406 351.289062 962.902344 C 350.597656 969.328125 350.890625 975.871094 350.890625 982.363281 C 350.890625 988.425781 350.425781 989.214844 344.359375 989.871094 C 339.375 990.410156 334.332031 990.972656 329.371094 991.085938 C 308.457031 991.550781 287.679688 994.675781 266.710938 994.035156 C 251 993.554688 235.460938 991.757812 220.003906 989.003906 C 216.761719 988.425781 215.273438 986.652344 215.117188 983.507812 C 215.03125 981.835938 214.910156 980.164062 214.886719 978.488281 C 214.605469 957.761719 213.816406 937.046875 213.445312 916.320312 C 212.921875 886.808594 211.417969 857.3125 211.25 827.785156 C 210.882812 763.671875 210.984375 699.558594 211.878906 635.457031 C 212.269531 607.601562 212.078125 579.746094 212.558594 551.894531 C 212.792969 538.078125 214.441406 524.355469 215.679688 510.609375 C 216.167969 505.195312 216.550781 499.765625 217.226562 494.375 C 217.800781 489.816406 217.957031 489.792969 222.578125 489.71875 C 248.957031 489.289062 275.339844 489.011719 301.714844 488.421875 C 317.832031 488.0625 333.941406 487.378906 350.066406 487.414062 C 356.679688 487.429688 356.765625 487.398438 356.972656 493.890625 C 357.542969 511.679688 357.851562 529.476562 358.609375 547.253906 C 359.507812 568.394531 359.996094 589.53125 359.65625 606.898438 Z M 732.132812 151.832031 C 730.40625 151.96875 729.554688 153.292969 728.492188 154.242188 C 714.863281 166.390625 700.207031 177.164062 684.992188 187.234375 C 663.171875 201.667969 641.53125 216.371094 619.6875 230.773438 C 582.609375 255.226562 544.195312 277.363281 503.878906 296.0625 C 453.601562 319.382812 403.101562 342.203125 352.066406 363.824219 C 293.804688 388.511719 233.734375 407.773438 172.820312 424.675781 C 139.757812 433.851562 106.695312 442.90625 72.90625 449.023438 C 57.886719 451.746094 42.921875 454.875 27.59375 455.527344 C 20.832031 455.8125 20.550781 455.710938 20.171875 448.847656 C 19.949219 444.875 20.019531 440.890625 19.886719 436.914062 C 19.789062 433.914062 21.019531 432.175781 24.125 431.835938 C 27.453125 431.472656 30.75 430.785156 34.082031 430.570312 C 46.929688 429.742188 59.089844 425.671875 71.464844 422.675781 C 94.285156 417.152344 116.035156 408.335938 138.164062 400.695312 C 174.328125 388.210938 210.691406 376.300781 246.1875 361.914062 C 295.25 342.035156 343.707031 320.820312 391.125 297.285156 C 450.203125 267.96875 505.65625 232.972656 556.984375 191.441406 C 585.3125 168.523438 612.738281 144.527344 641.140625 121.695312 C 652.386719 112.65625 662.953125 102.734375 673.257812 92.589844 C 680.625 85.339844 680.621094 85.308594 672.25 78.984375 C 656.546875 67.113281 640.832031 55.257812 626.203125 42.046875 C 623.71875 39.804688 621.273438 37.496094 619.003906 35.042969 C 617.464844 33.382812 615.597656 31.429688 616.375 29.007812 C 617.214844 26.398438 620.039062 26.5625 622.253906 26.28125 C 624.320312 26.015625 626.433594 26.039062 628.523438 26.070312 C 646.554688 26.328125 664.449219 24.15625 682.398438 23.019531 C 720.429688 20.617188 758.445312 17.839844 796.59375 18.523438 C 801.484375 18.609375 802.824219 19.957031 802.769531 24.992188 C 802.734375 27.917969 802.457031 30.859375 802.035156 33.757812 C 799.042969 54.292969 797.695312 74.988281 796.136719 95.652344 C 794.226562 120.972656 790.074219 145.921875 785.246094 170.804688 C 783.011719 182.304688 781.261719 193.902344 779.296875 205.453125 C 778.945312 207.519531 778.632812 209.589844 778.28125 211.652344 C 778.019531 213.203125 777.304688 214.4375 775.65625 214.804688 C 773.804688 215.21875 772.390625 214.53125 771.398438 212.925781 C 770.515625 211.5 769.71875 210.011719 768.714844 208.683594 C 756.5625 192.621094 746.039062 175.523438 736.226562 157.964844 C 735.027344 155.824219 734.035156 153.480469 732.132812 151.832031 Z M 1.519531 914.519531 C 1.519531 899.652344 0.976562 884.757812 1.652344 869.921875 C 2.546875 850.277344 2.050781 830.609375 3.042969 811.007812 C 3.59375 800.148438 3.070312 789.238281 4.21875 778.476562 C 5.417969 767.1875 4.308594 755.863281 5.464844 744.683594 C 6.976562 730.050781 5.484375 715.382812 6.753906 700.84375 C 7.828125 688.503906 6.835938 676.148438 8 663.910156 C 8.933594 654.085938 8.121094 644.226562 9.261719 634.523438 C 10.511719 623.855469 9.382812 613.175781 10.449219 602.605469 C 12.09375 586.308594 11.148438 570.015625 11.480469 553.726562 C 11.582031 548.589844 12.261719 548.128906 17.273438 547.746094 C 23.589844 547.269531 29.703125 549.074219 35.988281 549.035156 C 52.734375 548.929688 69.488281 549.347656 86.226562 548.980469 C 100.253906 548.667969 114.164062 550.6875 128.179688 550.339844 C 133.664062 550.203125 134.664062 551.542969 134.714844 557.074219 C 134.820312 568.773438 134.269531 580.441406 133.667969 592.128906 C 132.902344 607.167969 134 622.300781 133.253906 637.34375 C 132.527344 651.964844 133.011719 666.632812 131.871094 681.175781 C 130.917969 693.3125 131.371094 705.398438 130.902344 717.5 C 130.679688 723.328125 131.378906 729.1875 129.871094 734.980469 C 129.363281 736.941406 129.375 739.246094 129.855469 741.222656 C 131.46875 747.847656 130.867188 754.550781 130.875 761.214844 C 130.949219 815.03125 130.796875 868.847656 131.078125 922.664062 C 131.132812 932.828125 132.210938 943.023438 133.128906 953.195312 C 133.917969 961.921875 133.386719 970.769531 133.4375 979.5625 C 133.453125 981.945312 132.476562 983.570312 130.015625 984.097656 C 128.390625 984.441406 126.789062 984.984375 125.148438 985.164062 C 103.117188 987.601562 81.007812 988.089844 58.863281 987.816406 C 46.726562 987.667969 34.582031 987.804688 22.441406 987.761719 C 20.152344 987.753906 17.886719 987.691406 15.585938 987.257812 C 5.421875 985.324219 1.613281 980.464844 1.539062 969.800781 C 1.410156 951.375 1.503906 932.945312 1.503906 914.519531 C 1.507812 914.519531 1.511719 914.519531 1.519531 914.519531 Z M 1.519531 914.519531 " fill-opacity="1" fill-rule="nonzero"/></g><path fill="#ffdd85" d="M 636.34375 651.859375 C 636.34375 628.128906 636.175781 611.578125 636.390625 595.027344 C 636.605469 578.289062 636.78125 561.527344 637.78125 544.824219 C 638.34375 535.40625 638.40625 526.007812 638.65625 516.601562 C 638.863281 508.863281 639.367188 501.132812 639.601562 493.410156 C 640.21875 473.109375 638.574219 452.828125 638.171875 432.527344 C 637.925781 420.191406 637.148438 407.804688 637.804688 395.515625 C 638.578125 381.074219 638.089844 366.609375 639.058594 352.21875 C 639.648438 343.480469 639.054688 334.65625 640.773438 325.957031 C 641.390625 322.824219 642.738281 321.902344 645.695312 321.609375 C 670.914062 319.085938 696.199219 318.875 721.515625 318.683594 C 731.519531 318.609375 741.609375 317.015625 751.5625 318.117188 C 762.242188 319.296875 772.867188 319.003906 783.527344 319.039062 C 785.410156 319.046875 787.300781 318.902344 789.179688 318.972656 C 794.128906 319.160156 795.484375 320.425781 795.496094 325.441406 C 795.507812 330.03125 795.75 334.628906 794.882812 339.21875 C 794.089844 343.382812 795.433594 347.550781 795.460938 351.710938 C 795.597656 372.871094 796.355469 394.0625 795.382812 415.175781 C 794.292969 438.84375 793.929688 462.503906 794.878906 486.117188 C 795.582031 503.632812 796.609375 521.175781 797.941406 538.679688 C 798.117188 540.972656 798.085938 543.285156 798.097656 545.589844 C 798.175781 559.835938 798.066406 574.085938 798.347656 588.324219 C 798.804688 611.742188 799.890625 635.132812 801.730469 658.488281 C 802.242188 664.945312 802.101562 671.472656 801.992188 677.964844 C 801.539062 705.398438 803.351562 732.804688 803.140625 760.230469 C 802.949219 785.15625 804.402344 810.039062 804.96875 834.941406 C 805.296875 849.363281 805.117188 863.839844 806.152344 878.226562 C 807.324219 894.519531 806.765625 910.851562 808.140625 927.125 C 809.144531 939.046875 807.3125 950.945312 806.886719 962.859375 C 806.617188 970.472656 803.175781 973.734375 794.488281 975.03125 C 779.195312 977.308594 763.914062 979.175781 748.351562 979.195312 C 731.417969 979.214844 714.460938 981.023438 697.535156 979.914062 C 682.675781 978.9375 667.839844 979.082031 652.988281 979.023438 C 647.117188 979.003906 647.117188 978.875 645.878906 972.769531 C 644.460938 965.773438 644.195312 958.640625 643.882812 951.578125 C 642.636719 923.339844 642.609375 895.070312 642.132812 866.8125 C 641.796875 846.933594 641.753906 827.027344 640.808594 807.175781 C 640.242188 795.253906 640.386719 783.316406 639.65625 771.417969 C 638.46875 752 638.027344 732.546875 637.023438 713.128906 C 635.847656 690.296875 636.855469 667.488281 636.34375 651.859375 Z M 636.34375 651.859375 " fill-opacity="1" fill-rule="nonzero"/><path fill="#75d0df" d="M 571 735.050781 C 571 754.144531 571.175781 773.839844 570.960938 793.53125 C 570.582031 827.882812 571.542969 862.222656 572.507812 896.535156 C 573.226562 922.082031 573.203125 947.609375 573.414062 973.144531 C 573.425781 974.402344 573.488281 975.667969 573.371094 976.914062 C 572.996094 980.933594 571.546875 982.5 567.480469 982.804688 C 561.230469 983.269531 554.96875 983.714844 548.703125 983.835938 C 536.976562 984.066406 525.1875 983.351562 513.53125 984.324219 C 498.503906 985.582031 483.433594 984.625 468.410156 986.15625 C 459.496094 987.0625 450.414062 986.511719 441.410156 986.351562 C 436.226562 986.261719 435.175781 984.972656 433.6875 979.886719 C 431.84375 973.578125 432.1875 967.039062 431.457031 960.621094 C 428.378906 933.539062 428.734375 906.304688 428.710938 879.109375 C 428.679688 837.625 428.605469 796.136719 429.082031 754.660156 C 429.273438 738.132812 429.546875 721.578125 430.433594 705.074219 C 430.957031 695.230469 431.445312 685.390625 431.003906 675.585938 C 429.207031 635.808594 431.1875 596 429.710938 556.238281 C 429.183594 542.015625 429.289062 527.765625 428.445312 513.578125 C 426.726562 484.726562 425.960938 455.871094 426.304688 426.976562 C 426.320312 425.71875 426.242188 424.457031 426.332031 423.207031 C 426.597656 419.335938 427.3125 418.589844 431.308594 418.359375 C 433.8125 418.210938 436.335938 418.253906 438.847656 418.304688 C 453.929688 418.625 469 417.667969 484.007812 416.640625 C 497.195312 415.738281 510.34375 415.800781 523.515625 415.507812 C 531.457031 415.332031 539.390625 414.773438 547.332031 414.476562 C 550.679688 414.355469 554.035156 414.386719 557.382812 414.496094 C 565.628906 414.769531 566.6875 415.792969 566.792969 424.152344 C 566.992188 440.070312 566.429688 456.03125 567.355469 471.90625 C 568.734375 495.5625 567.746094 519.230469 568.640625 542.859375 C 569.617188 568.613281 568.609375 594.390625 569.855469 620.113281 C 571.699219 658.226562 569.765625 696.34375 571 735.050781 Z M 571 735.050781 " fill-opacity="1" fill-rule="nonzero"/><g clip-path="url(#923faf30ae)"><path fill="#f68374" d="M 359.65625 606.898438 C 359.65625 621.578125 359.957031 632.484375 359.59375 643.367188 C 358.902344 663.875 358.582031 684.390625 358.035156 704.902344 C 357.386719 729.378906 356.460938 753.855469 355.566406 778.328125 C 354.925781 795.914062 355.175781 813.507812 354.363281 831.074219 C 352.773438 865.410156 354.457031 899.777344 353.085938 934.101562 C 352.699219 943.703125 352.320312 953.316406 351.289062 962.902344 C 350.597656 969.328125 350.890625 975.871094 350.890625 982.363281 C 350.890625 988.425781 350.425781 989.214844 344.359375 989.871094 C 339.375 990.410156 334.332031 990.972656 329.371094 991.085938 C 308.457031 991.550781 287.679688 994.675781 266.710938 994.035156 C 251 993.554688 235.460938 991.757812 220.003906 989.003906 C 216.761719 988.425781 215.273438 986.652344 215.117188 983.507812 C 215.03125 981.835938 214.910156 980.164062 214.886719 978.488281 C 214.605469 957.761719 213.816406 937.046875 213.445312 916.320312 C 212.921875 886.808594 211.417969 857.3125 211.25 827.785156 C 210.882812 763.671875 210.984375 699.558594 211.878906 635.457031 C 212.269531 607.601562 212.078125 579.746094 212.558594 551.894531 C 212.792969 538.078125 214.441406 524.355469 215.679688 510.609375 C 216.167969 505.195312 216.550781 499.765625 217.226562 494.375 C 217.800781 489.816406 217.957031 489.792969 222.578125 489.71875 C 248.957031 489.289062 275.339844 489.011719 301.714844 488.421875 C 317.832031 488.0625 333.941406 487.378906 350.066406 487.414062 C 356.679688 487.429688 356.765625 487.398438 356.972656 493.890625 C 357.542969 511.679688 357.851562 529.476562 358.609375 547.253906 C 359.507812 568.394531 359.996094 589.53125 359.65625 606.898438 Z M 359.65625 606.898438 " fill-opacity="1" fill-rule="nonzero"/></g><path fill="#303c36" d="M 732.132812 151.832031 C 730.40625 151.96875 729.554688 153.292969 728.492188 154.242188 C 714.863281 166.390625 700.207031 177.164062 684.992188 187.234375 C 663.171875 201.667969 641.53125 216.371094 619.6875 230.773438 C 582.609375 255.226562 544.195312 277.363281 503.878906 296.0625 C 453.601562 319.382812 403.101562 342.203125 352.066406 363.824219 C 293.804688 388.511719 233.734375 407.773438 172.820312 424.675781 C 139.757812 433.851562 106.695312 442.90625 72.90625 449.023438 C 57.886719 451.746094 42.921875 454.875 27.59375 455.527344 C 20.832031 455.8125 20.550781 455.710938 20.171875 448.847656 C 19.949219 444.875 20.019531 440.890625 19.886719 436.914062 C 19.789062 433.914062 21.019531 432.175781 24.125 431.835938 C 27.453125 431.472656 30.75 430.785156 34.082031 430.570312 C 46.929688 429.742188 59.089844 425.671875 71.464844 422.675781 C 94.285156 417.152344 116.035156 408.335938 138.164062 400.695312 C 174.328125 388.210938 210.691406 376.300781 246.1875 361.914062 C 295.25 342.035156 343.707031 320.820312 391.125 297.285156 C 450.203125 267.96875 505.65625 232.972656 556.984375 191.441406 C 585.3125 168.523438 612.738281 144.527344 641.140625 121.695312 C 652.386719 112.65625 662.953125 102.734375 673.257812 92.589844 C 680.625 85.339844 680.621094 85.308594 672.25 78.984375 C 656.546875 67.113281 640.832031 55.257812 626.203125 42.046875 C 623.71875 39.804688 621.273438 37.496094 619.003906 35.042969 C 617.464844 33.382812 615.597656 31.429688 616.375 29.007812 C 617.214844 26.398438 620.039062 26.5625 622.253906 26.28125 C 624.320312 26.015625 626.433594 26.039062 628.523438 26.070312 C 646.554688 26.328125 664.449219 24.15625 682.398438 23.019531 C 720.429688 20.617188 758.445312 17.839844 796.59375 18.523438 C 801.484375 18.609375 802.824219 19.957031 802.769531 24.992188 C 802.734375 27.917969 802.457031 30.859375 802.035156 33.757812 C 799.042969 54.292969 797.695312 74.988281 796.136719 95.652344 C 794.226562 120.972656 790.074219 145.921875 785.246094 170.804688 C 783.011719 182.304688 781.261719 193.902344 779.296875 205.453125 C 778.945312 207.519531 778.632812 209.589844 778.28125 211.652344 C 778.019531 213.203125 777.304688 214.4375 775.65625 214.804688 C 773.804688 215.21875 772.390625 214.53125 771.398438 212.925781 C 770.515625 211.5 769.71875 210.011719 768.714844 208.683594 C 756.5625 192.621094 746.039062 175.523438 736.226562 157.964844 C 735.027344 155.824219 734.035156 153.480469 732.132812 151.832031 Z M 732.132812 151.832031 " fill-opacity="1" fill-rule="nonzero"/><path fill="#d4f6c8" d="M 1.519531 914.519531 C 1.519531 899.652344 0.976562 884.757812 1.652344 869.921875 C 2.546875 850.277344 2.050781 830.609375 3.042969 811.007812 C 3.59375 800.148438 3.070312 789.238281 4.21875 778.476562 C 5.417969 767.1875 4.308594 755.863281 5.464844 744.683594 C 6.976562 730.050781 5.484375 715.382812 6.753906 700.84375 C 7.828125 688.503906 6.835938 676.148438 8 663.910156 C 8.933594 654.085938 8.121094 644.226562 9.261719 634.523438 C 10.511719 623.855469 9.382812 613.175781 10.449219 602.605469 C 12.09375 586.308594 11.148438 570.015625 11.480469 553.726562 C 11.582031 548.589844 12.261719 548.128906 17.273438 547.746094 C 23.589844 547.269531 29.703125 549.074219 35.988281 549.035156 C 52.734375 548.929688 69.488281 549.347656 86.226562 548.980469 C 100.253906 548.667969 114.164062 550.6875 128.179688 550.339844 C 133.664062 550.203125 134.664062 551.542969 134.714844 557.074219 C 134.820312 568.773438 134.269531 580.441406 133.667969 592.128906 C 132.902344 607.167969 134 622.300781 133.253906 637.34375 C 132.527344 651.964844 133.011719 666.632812 131.871094 681.175781 C 130.917969 693.3125 131.371094 705.398438 130.902344 717.5 C 130.679688 723.328125 131.378906 729.1875 129.871094 734.980469 C 129.363281 736.941406 129.375 739.246094 129.855469 741.222656 C 131.46875 747.847656 130.867188 754.550781 130.875 761.214844 C 130.949219 815.03125 130.796875 868.847656 131.078125 922.664062 C 131.132812 932.828125 132.210938 943.023438 133.128906 953.195312 C 133.917969 961.921875 133.386719 970.769531 133.4375 979.5625 C 133.453125 981.945312 132.476562 983.570312 130.015625 984.097656 C 128.390625 984.441406 126.789062 984.984375 125.148438 985.164062 C 103.117188 987.601562 81.007812 988.089844 58.863281 987.816406 C 46.726562 987.667969 34.582031 987.804688 22.441406 987.761719 C 20.152344 987.753906 17.886719 987.691406 15.585938 987.257812 C 5.421875 985.324219 1.613281 980.464844 1.539062 969.800781 C 1.410156 951.375 1.503906 932.945312 1.503906 914.519531 C 1.507812 914.519531 1.511719 914.519531 1.519531 914.519531 Z M 1.519531 914.519531 " fill-opacity="1" fill-rule="nonzero"/></svg>