<?xml version="1.0" encoding="utf-8"?>
<!-- Generator: Adobe Illustrator 24.1.1, SVG Export Plug-In . SVG Version: 6.00 Build 0)  -->
<svg version="1.1" id="Camada_1" xmlns="http://www.w3.org/2000/svg" xmlns:xlink="http://www.w3.org/1999/xlink" x="0px" y="0px"
	 viewBox="0 0 144.8 141.7" style="enable-background:new 0 0 144.8 141.7;" xml:space="preserve">
<style type="text/css">
	.st0{fill:#009390;}
	.st1{fill:#FFD260;}
</style>
<g>
	<path class="st0" d="M141.8,91.9c-0.2-0.3-4.5-7.7-12.9-9.6c-5.6-1.3-11.5,0.2-17.4,4.2l-11.8,7.8c-1.1-1.4-2.6-2.6-4.4-3.5
		c-2.6-1.4-5.7-2.2-8.9-2.2H73.1c-3.2-3.1-7-5.4-11.1-6.8c-8-2.6-17.2-1.6-24.1,2.6c-0.2,0.1-0.5,0.3-8,6.2H10.2
		c-2,0-3.6,1.6-3.6,3.6v32.3c0,2,1.6,3.6,3.6,3.6h25.3c1.3,0,2.6,0.1,3.9,0.4l43.3,7.9c0.2,0,0.4,0.1,0.6,0.1c0.8,0,1.5-0.2,2.1-0.7
		l55.4-41.1C142.2,95.5,142.7,93.5,141.8,91.9z M82.4,131l-41.7-7.6c-1.7-0.3-3.4-0.5-5.2-0.5H13.7V97.8H31c0.8,0,1.6-0.3,2.2-0.8
		c6.6-5.2,8.1-6.3,8.4-6.6c5.1-3,12.2-3.8,18.1-1.8c3.5,1.1,6.6,3.2,9.3,6c0.7,0.7,1.6,1.1,2.6,1.1h14.9c2,0,3.9,0.5,5.4,1.3
		c3.2,1.8,3.4,4,3.4,4.7c0.1,1.7-0.3,3.1-1.4,4.2c-1,1-2.5,1.6-4.2,1.6H57c-2,0-3.6,1.6-3.6,3.6s1.6,3.6,3.6,3.6h32.7
		c3.5,0,6.9-1.4,9.3-3.7c2.5-2.5,3.7-5.9,3.4-9.7c0-0.1,0-0.1,0-0.2l13-8.6c4.3-2.9,8.2-4,11.8-3.2c2.8,0.6,4.9,2.3,6.3,3.7
		L82.4,131z"/>
	<path class="st1" d="M73.9,4.2C54.1,4.2,38,20.3,38,40.1s16.1,35.9,35.9,35.9s35.9-16.1,35.9-35.9S93.8,4.2,73.9,4.2z M45.1,40.1
		c0-14.7,11-26.8,25.2-28.6V22c-5,1.9-8,6.8-7.5,12.2c0.6,5.6,4.7,9.9,10.2,10.6c0.6,0.1,1.3,0.1,1.9,0.2c1.1,0,2.1,0.4,2.7,1
		c0.7,0.6,1.4,1.6,0.7,4c-0.5,1.7-1.4,2.3-2,2.6c-1.1,0.6-2.5,0.7-3.8,0.2c-1.3-0.5-2.4-1.4-3-2.7c-0.2-0.4-0.4-0.9-0.5-1.4
		c-0.4-1.9-2.4-3.1-4.3-2.7c-1.9,0.4-3.1,2.4-2.7,4.3c0.2,1,0.6,1.9,1,2.8c1.4,3,4,5.3,7.1,6.4c0,0,0,0,0,0v9.2
		C56.2,67,45.1,54.8,45.1,40.1z M77.6,68.7v-9c0.7-0.2,1.5-0.5,2.1-0.8c2.7-1.4,4.7-3.8,5.6-7c1.7-6-1-9.7-2.8-11.3
		c-1.9-1.7-4.4-2.7-7.2-2.8c-0.4,0-0.9-0.1-1.3-0.1c-2.7-0.4-3.9-2.5-4.1-4.3c-0.2-1.8,0.5-4,3-4.8c0.2-0.1,0.3-0.1,0.4-0.1
		c3.1,0,4.7,1.4,5.2,4.4c0.3,1.9,2.2,3.3,4.1,2.9c1.9-0.3,3.3-2.2,2.9-4.1c-0.8-5-3.8-8.5-8.2-9.8V11.5
		c14.2,1.8,25.2,13.9,25.2,28.6C102.7,54.8,91.8,66.9,77.6,68.7z"/>
</g>
</svg>
